<?xml version="1.0" encoding="UTF-8"?>
<svg version="1.1" xmlns="http://www.w3.org/2000/svg" width="381" height="230">
<path d="M0 0 C59.73 0 119.46 0 181 0 C181 59.4 181 118.8 181 180 C121.27 180 61.54 180 0 180 C0 120.6 0 61.2 0 0 Z " fill="#EB6501" transform="translate(0,0)"/>
<path d="M0 0 C4.62 0 9.24 0 14 0 C14.5775 1.77375 15.155 3.5475 15.75 5.375 C17.02938447 9.22662061 18.37219239 13.00603976 19.9375 16.75 C22.28154631 22.46245931 24.03656756 28.34012973 25.84375 34.23828125 C27.47287337 39.538436 29.24337437 44.78437175 31.03515625 50.03125 C31.57462891 51.62453125 31.57462891 51.62453125 32.125 53.25 C32.45757812 54.22453125 32.79015625 55.1990625 33.1328125 56.203125 C33.93599662 58.79357468 34.52295859 61.33246231 35 64 C37.66336787 57.05419565 40.00585973 50.02608741 42.30664062 42.953125 C44.04991149 37.65730883 45.97425195 32.48435196 48.07836914 27.32177734 C49.36275218 24.08615279 50.43367638 20.81424909 51.5 17.5 C53.43561352 11.56024177 55.60341248 5.76956255 58 0 C62.62 0 67.24 0 72 0 C72.52870371 7.73791627 73.05147535 15.47618311 73.56460571 23.21514511 C73.80324913 26.81099476 74.04420823 30.40665386 74.29101562 34.00195312 C75.38812691 50.00835451 76.34825975 65.94619314 76 82 C72.7 82 69.4 82 66 82 C64.02 49.33 64.02 49.33 62 16 C58.7 25.9 55.4 35.8 52 46 C49.65320519 52.63725404 47.29403323 59.26461554 44.875 65.875 C44.29390464 67.4725231 43.71317673 69.0701799 43.1328125 70.66796875 C41.75936397 74.44684011 40.38122238 78.22396354 39 82 C36.36 82 33.72 82 31 82 C29.01046481 76.74392733 27.08947615 71.47312917 25.2578125 66.16015625 C25.00756317 65.43493271 24.75731384 64.70970917 24.4994812 63.96250916 C23.97280468 62.43413122 23.44678182 60.90552789 22.92138672 59.37670898 C22.13729223 57.09821983 21.34800419 54.8215737 20.55859375 52.54492188 C16.17647498 39.84021574 12.20016427 27.05597965 9 14 C8.98541748 14.63873047 8.97083496 15.27746094 8.95581055 15.93554688 C8.40755752 38.02065101 6.77018585 59.98508283 5 82 C1.7 82 -1.6 82 -5 82 C-5.14171607 72.74948381 -4.58046651 63.61149862 -3.90625 54.39453125 C-3.79380957 52.81843949 -3.68171431 51.24232306 -3.56994629 49.66618347 C-3.27745681 45.55446646 -2.9803361 41.4430973 -2.68218994 37.33178711 C-2.3777308 33.12178528 -2.07773528 28.91146554 -1.77734375 24.70117188 C-1.18921936 16.46713246 -0.59577997 8.23348903 0 0 Z " fill="#FEFAF7" transform="translate(86,86)"/>
<path d="M0 0 C4.57682582 4.4196419 6.65341003 8.81732879 6.9375 15.1875 C6.68061911 22.04154917 4.36797551 27.80318698 -0.4375 32.75 C-4.78232759 35.75 -4.78232759 35.75 -7.4375 35.75 C-7.4375 36.41 -7.4375 37.07 -7.4375 37.75 C-6.86 37.976875 -6.2825 38.20375 -5.6875 38.4375 C0.40674825 41.99247814 2.43920269 48.51874556 4.16137695 55.00585938 C4.6995417 57.3110845 5.20198787 59.62063612 5.6875 61.9375 C5.94080078 63.10829102 5.94080078 63.10829102 6.19921875 64.30273438 C7.02002545 68.11269933 7.7981044 71.92802199 8.5625 75.75 C4.9325 75.75 1.3025 75.75 -2.4375 75.75 C-2.76363281 74.48285156 -3.08976562 73.21570313 -3.42578125 71.91015625 C-3.86702576 70.21089549 -4.30844117 68.51167911 -4.75 66.8125 C-4.96333984 65.98169922 -5.17667969 65.15089844 -5.39648438 64.29492188 C-8.07857774 52.20562279 -8.07857774 52.20562279 -15.4375 42.75 C-20.85044744 40.94568419 -26.74625243 41.15651768 -32.4375 40.75 C-32.4375 52.3 -32.4375 63.85 -32.4375 75.75 C-36.0675 75.75 -39.6975 75.75 -43.4375 75.75 C-43.46062359 65.33657075 -43.47841517 54.92314756 -43.48931217 44.50969791 C-43.49454097 39.67483173 -43.50163854 34.83998306 -43.51293945 30.00512695 C-43.52376847 25.3432288 -43.52977686 20.68134754 -43.53237724 16.01943779 C-43.53423147 14.23675712 -43.53785203 12.45407741 -43.54323006 10.67140388 C-43.55044069 8.1833404 -43.55149093 5.69534757 -43.55102539 3.20727539 C-43.55462067 2.46281158 -43.55821594 1.71834778 -43.56192017 0.95132446 C-43.55155216 -4.13594784 -43.55155216 -4.13594784 -42.4375 -5.25 C-28.67668745 -7.43425596 -11.4433889 -9.14238431 0 0 Z " fill="#FEF9F5" transform="translate(62.4375,92.25)"/>
<path d="M0 0 C-0.875 7.625 -0.875 7.625 -2 11 C-2.51046875 10.7834375 -3.0209375 10.566875 -3.546875 10.34375 C-11.12455324 7.44166046 -18.74611261 6.65666714 -26.5625 9.125 C-29.63939794 11.49184457 -30.77338305 13.32014915 -32 17 C-31.92866875 20.4952314 -31.2676399 22.52290279 -29.5625 25.5625 C-25.11474055 29.79329557 -19.48749858 31.89374269 -13.92578125 34.3671875 C-6.55326352 37.78981179 -0.67566146 41.33457769 2.8984375 48.90234375 C4.84818415 55.09342239 4.55980986 62.3925633 1.98828125 68.33984375 C-1.93964281 74.99377189 -6.77935447 78.29225793 -14 81 C-24.64609211 83.51005424 -36.33662266 82.25431865 -46 77 C-45.745504 75.51793505 -45.47088238 74.03931385 -45.1875 72.5625 C-45.03667969 71.73878906 -44.88585937 70.91507812 -44.73046875 70.06640625 C-44.48941406 69.38449219 -44.24835938 68.70257813 -44 68 C-40.29270883 66.76423628 -39.5019501 67.425757 -36 68.9375 C-28.97513681 71.61718291 -22.4793834 72.46500354 -15.4375 69.5 C-14.633125 69.005 -13.82875 68.51 -13 68 C-12.34 68 -11.68 68 -11 68 C-8.82459915 63.64919829 -8.40747767 59.76931905 -9 55 C-11.41112029 48.52011423 -17.98222646 45.93614619 -23.87109375 43.15234375 C-39.26988973 35.84474311 -39.26988973 35.84474311 -43.109375 27.625 C-45.07832148 21.82178932 -44.95423373 15.3042448 -42.4375 9.6875 C-38.7729556 3.43471095 -33.52954509 -0.54512997 -26.578125 -2.53125 C-17.32521096 -4.21359801 -8.82902839 -2.97249854 0 0 Z " fill="#444342" transform="translate(234,91)"/>
<path d="M0 0 C7.04412215 7.04412215 9.28784124 14.86317003 9.5625 24.625 C9.37294452 34.27002908 7.15655285 42.26567066 0.25 49.25 C-7.21376386 55.21190893 -15.31814417 57.13378373 -24.75 56.25 C-32.32210155 54.96465167 -37.77446261 51.01324772 -42.75 45.25 C-48.21467279 36.06694105 -49.29525742 25.59462715 -47.1015625 15.16796875 C-44.53578846 7.32810362 -40.19925862 1.10068114 -33.0625 -3.1875 C-21.78760294 -8.50584767 -10.17302587 -6.47374374 0 0 Z M-32 9.625 C-36.60523917 16.53285876 -36.6057773 24.22157381 -35.75 32.25 C-34.1592292 37.47974434 -31.97507929 41.13381664 -27.9375 44.8125 C-22.89471551 47.08669693 -18.96483813 47.9587482 -13.625 46.25 C-7.91120409 42.27518545 -4.57066966 38.01487351 -2.75 31.25 C-1.89661174 23.34127396 -2.15908982 15.96840515 -6.75 9.25 C-10.36348693 5.41527917 -13.700868 3.10873046 -19 2.9375 C-24.88903278 3.01312161 -28.00832064 5.41156067 -32 9.625 Z " fill="#444342" transform="translate(294.75,116.75)"/>
<path d="M0 0 C1.1446875 -0.00257812 2.289375 -0.00515625 3.46875 -0.0078125 C6.5 0.125 6.5 0.125 9.5 1.125 C9.17 3.765 8.84 6.405 8.5 9.125 C5.76791958 9.99926573 3.98836679 10.08779031 1.0625 9.875 C-2.45627661 10.12193169 -4.07537367 10.48668414 -6.43359375 13.1484375 C-8.90531119 17.72971598 -9.53036275 23.0726796 -10.5 28.125 C-5.88 28.125 -1.26 28.125 3.5 28.125 C3.5 31.095 3.5 34.065 3.5 37.125 C-1.12 37.125 -5.74 37.125 -10.5 37.125 C-10.5 53.955 -10.5 70.785 -10.5 88.125 C-14.13 88.125 -17.76 88.125 -21.5 88.125 C-21.5 71.295 -21.5 54.465 -21.5 37.125 C-24.14 37.125 -26.78 37.125 -29.5 37.125 C-29.5 34.155 -29.5 31.185 -29.5 28.125 C-26.86 28.125 -24.22 28.125 -21.5 28.125 C-21.47873047 26.89136719 -21.47873047 26.89136719 -21.45703125 25.6328125 C-21.10889857 17.48462595 -20.18175801 9.53688223 -13.94140625 3.65625 C-9.38015791 0.47133844 -5.42851796 -0.01222639 0 0 Z " fill="#444342" transform="translate(338.5,83.875)"/>
<path d="M0 0 C0 4.62 0 9.24 0 14 C4.95 14 9.9 14 15 14 C15 16.97 15 19.94 15 23 C10.05 23 5.1 23 0 23 C0.06889719 28.19659918 0.1568731 33.39239528 0.26245117 38.58837891 C0.29568069 40.35554083 0.32371882 42.12280839 0.34643555 43.89013672 C0.38001831 46.43242351 0.43233451 48.97374408 0.48828125 51.515625 C0.49467117 52.30430969 0.5010611 53.09299438 0.50764465 53.90557861 C0.59562394 57.19673353 0.77916213 59.602337 2.39282227 62.50805664 C3.91449929 64.19804872 3.91449929 64.19804872 6.2265625 64.35546875 C7.01804687 64.30003906 7.80953125 64.24460937 8.625 64.1875 C10.08206293 64.10026484 11.5406783 64.03197717 13 64 C14 65 14 65 14.09765625 66.84765625 C14.06510417 68.8984375 14.03255208 70.94921875 14 73 C9.40596436 75.37111517 5.05292982 75.57135602 0 75 C-4.70005528 73.31507452 -7.40089503 71.26995816 -10 67 C-12.75004012 58.13550899 -12.22278544 49.11918428 -12.125 39.9375 C-12.11495163 38.29232315 -12.10582906 36.64714036 -12.09765625 35.00195312 C-12.07578623 31.00115385 -12.04135854 27.00064334 -12 23 C-14.64 23 -17.28 23 -20 23 C-20 20.03 -20 17.06 -20 14 C-17.36 14 -14.72 14 -12 14 C-12 10.37 -12 6.74 -12 3 C-3.375 0 -3.375 0 0 0 Z " fill="#444342" transform="translate(366,98)"/>
<path d="M0 0 C3.3880418 1.95138916 5.97717712 4.50122924 7.72265625 7.9921875 C8.31372112 13.67550358 7.99509041 18.13995753 4.72265625 22.9921875 C0.88429331 26.54267322 -2.06390157 28.12913067 -7.2890625 28.08984375 C-8.31326294 28.08609741 -8.31326294 28.08609741 -9.3581543 28.08227539 C-10.21836182 28.07317139 -11.07856934 28.06406738 -11.96484375 28.0546875 C-16.07953125 28.02375 -16.07953125 28.02375 -20.27734375 27.9921875 C-20.27734375 18.4221875 -20.27734375 8.8521875 -20.27734375 -1.0078125 C-13.72143039 -3.19311695 -6.33458725 -2.73154687 0 0 Z " fill="#EC6602" transform="translate(50.27734375,96.0078125)"/>
<path d="M0 0 C1.98 0 3.96 0 6 0 C6.34933594 1.07121094 6.69867188 2.14242187 7.05859375 3.24609375 C7.51807145 4.64328104 7.97771546 6.04041365 8.4375 7.4375 C8.66759766 8.14455078 8.89769531 8.85160156 9.13476562 9.58007812 C10.07421147 13.06306795 10.07421147 13.06306795 12 16 C12.34933594 14.92878906 12.69867188 13.85757813 13.05859375 12.75390625 C13.51807145 11.35671896 13.97771546 9.95958635 14.4375 8.5625 C14.66759766 7.85544922 14.89769531 7.14839844 15.13476562 6.41992188 C16.88671875 1.11328125 16.88671875 1.11328125 18 0 C19.65 0 21.3 0 23 0 C23 7.92 23 15.84 23 24 C21.68 24 20.36 24 19 24 C18.67 20.04 18.34 16.08 18 12 C16.68 15.96 15.36 19.92 14 24 C12.35 24 10.7 24 9 24 C7.68 20.04 6.36 16.08 5 12 C4.67 15.96 4.34 19.92 4 24 C2.68 24 1.36 24 0 24 C0 16.08 0 8.16 0 0 Z " fill="#EA5414" transform="translate(121,199)"/>
<path d="M0 0 C2.578125 -0.061875 5.15625 -0.12375 7.8125 -0.1875 C9.02450073 -0.22846802 9.02450073 -0.22846802 10.26098633 -0.27026367 C15.51481162 -0.3315616 15.51481162 -0.3315616 17.94921875 1.33203125 C19.62127563 3.98618845 20 5.86178223 20 9 C17.5625 11.875 17.5625 11.875 15 14 C15.5053125 14.63808594 16.010625 15.27617187 16.53125 15.93359375 C17.1809375 16.75988281 17.830625 17.58617187 18.5 18.4375 C19.1496875 19.26121094 19.799375 20.08492187 20.46875 20.93359375 C22 23 22 23 22 24 C19.375 24.5625 19.375 24.5625 16 24 C14.29289611 21.79389651 12.94455574 19.46891948 11.5234375 17.0703125 C10.05911901 14.65366411 10.05911901 14.65366411 6.625 13.9375 C5.75875 13.958125 4.8925 13.97875 4 14 C4 17.3 4 20.6 4 24 C2.68 24 1.36 24 0 24 C0 16.08 0 8.16 0 0 Z M4 3 C4 5.31 4 7.62 4 10 C7.3 10 10.6 10 14 10 C14.66 8.68 15.32 7.36 16 6 C14.29171079 3.89366282 13.47851584 3.06198392 10.73828125 2.70703125 C9.53751953 2.75923828 9.53751953 2.75923828 8.3125 2.8125 C7.50425781 2.83957031 6.69601563 2.86664063 5.86328125 2.89453125 C5.24839844 2.92933594 4.63351563 2.96414062 4 3 Z " fill="#EA5414" transform="translate(7,199)"/>
<path d="M0 0 C2.5 1.8125 2.5 1.8125 4 4 C3.75 6.25 3.75 6.25 3 8 C2.01 8 1.02 8 0 8 C-0.66 6.68 -1.32 5.36 -2 4 C-3.98 4 -5.96 4 -8 4 C-8.33 4.99 -8.66 5.98 -9 7 C-7.1746875 7.6496875 -7.1746875 7.6496875 -5.3125 8.3125 C1.61824383 10.97911598 1.61824383 10.97911598 4 13 C5.08802535 16.74008713 5.59432564 18.87078128 3.75 22.375 C1.16494738 24.775406 -0.89395503 24.99214482 -4.375 25.25 C-8.28684555 24.98021755 -10.06851728 24.5866024 -13 22 C-13.8125 18.8125 -13.8125 18.8125 -14 16 C-12.125 16.3125 -12.125 16.3125 -10 17 C-9.34 17.99 -8.68 18.98 -8 20 C-4.41642759 20.25015873 -4.41642759 20.25015873 -1 20 C-0.67 18.68 -0.34 17.36 0 16 C-0.77085937 15.73445313 -1.54171875 15.46890625 -2.3359375 15.1953125 C-3.84027344 14.66550781 -3.84027344 14.66550781 -5.375 14.125 C-6.37273437 13.77695313 -7.37046875 13.42890625 -8.3984375 13.0703125 C-11 12 -11 12 -13 10 C-13.56321839 3.8045977 -13.56321839 3.8045977 -11.6875 1.125 C-7.68052716 -1.54631523 -4.5283173 -1.03277412 0 0 Z " fill="#EA5414" transform="translate(334,199)"/>
<path d="M0 0 C0.05819424 3.24992446 0.09366116 6.49971435 0.125 9.75 C0.14175781 10.67039063 0.15851563 11.59078125 0.17578125 12.5390625 C0.18222656 13.42851562 0.18867188 14.31796875 0.1953125 15.234375 C0.20578613 16.05131836 0.21625977 16.86826172 0.22705078 17.70996094 C-0.02560219 20.25822419 -0.63865265 21.84119819 -2 24 C-5.17862304 25.58931152 -8.53911302 25.40341627 -12 25 C-14 23.6875 -14 23.6875 -15 22 C-15 21.01 -15 20.02 -15 19 C-13.68 19 -12.36 19 -11 19 C-10.67 19.66 -10.34 20.32 -10 21 C-8.35 20.67 -6.7 20.34 -5 20 C-5 19.34 -5 18.68 -5 18 C-6.093125 18.0825 -7.18625 18.165 -8.3125 18.25 C-12 18 -12 18 -13.703125 16.296875 C-15.93890116 12.33712687 -15.61557662 8.41163243 -15 4 C-12.09879375 -1.80241251 -5.64331142 -0.3502745 0 0 Z M-9 3 C-11.16268757 5.70335947 -12.05625689 7.1936512 -11.8125 10.6875 C-11.13259902 13.15588836 -11.13259902 13.15588836 -9 15 C-6.21762345 14.59471099 -6.21762345 14.59471099 -4 13 C-3.77081758 8.98342857 -3.77081758 8.98342857 -4 5 C-4.66 4.34 -5.32 3.68 -6 3 C-6.99 3 -7.98 3 -9 3 Z " fill="#444342" transform="translate(217,205)"/>
<path d="M0 0 C4.66666667 0 9.33333333 0 14 0 C15.7634375 -0.061875 15.7634375 -0.061875 17.5625 -0.125 C21 0 21 0 23 2 C23.14507695 4.74485593 23.18652423 7.38480543 23.125 10.125 C23.11597656 10.87910156 23.10695313 11.63320312 23.09765625 12.41015625 C23.0740687 14.27357254 23.03819719 16.13682593 23 18 C22.01 18 21.02 18 20 18 C19.93941406 17.15695313 19.87882812 16.31390625 19.81640625 15.4453125 C19.69072266 13.80175781 19.69072266 13.80175781 19.5625 12.125 C19.48128906 11.03445312 19.40007812 9.94390625 19.31640625 8.8203125 C19.16998297 6.05271029 19.16998297 6.05271029 18 4 C16.68 4 15.36 4 14 4 C13.67 8.62 13.34 13.24 13 18 C12.01 18 11.02 18 10 18 C9.67 13.71 9.34 9.42 9 5 C7.35 4.67 5.7 4.34 4 4 C3.67 8.62 3.34 13.24 3 18 C2.01 18 1.02 18 0 18 C0 12.06 0 6.12 0 0 Z " fill="#444342" transform="translate(239,205)"/>
<path d="M0 0 C0.680625 -0.02835938 1.36125 -0.05671875 2.0625 -0.0859375 C4 0.375 4 0.375 5.70703125 1.9453125 C7.44467244 5.21060803 7.51711614 7.94470858 7.6875 11.625 C7.78611328 13.51992187 7.78611328 13.51992187 7.88671875 15.453125 C7.92410156 16.41734375 7.96148437 17.3815625 8 18.375 C7.08476562 18.35953125 6.16953125 18.3440625 5.2265625 18.328125 C1.90976595 18.27499741 1.90976595 18.27499741 -1.625 19.125 C-5 19.375 -5 19.375 -7.5 17.75 C-9 15.375 -9 15.375 -8.875 12.75 C-8 10.375 -8 10.375 -6 8.375 C-3.8359375 7.9609375 -3.8359375 7.9609375 -1.375 7.75 C-0.55773437 7.67523438 0.25953125 7.60046875 1.1015625 7.5234375 C1.72804687 7.47445312 2.35453125 7.42546875 3 7.375 C3 6.385 3 5.395 3 4.375 C1.02 4.375 -0.96 4.375 -3 4.375 C-3.33 5.035 -3.66 5.695 -4 6.375 C-5.32 6.375 -6.64 6.375 -8 6.375 C-7.6875 4.5 -7.6875 4.5 -7 2.375 C-4.05916436 0.41444291 -3.31872048 0.06285455 0 0 Z M-5 12.375 C-4.34 13.695 -3.68 15.015 -3 16.375 C-0.49034386 15.67160434 -0.49034386 15.67160434 2 14.375 C2.88693303 12.33394361 2.88693303 12.33394361 3 10.375 C0.36423317 10.375 -2.48513411 11.64340265 -5 12.375 Z " fill="#444342" transform="translate(192,204.625)"/>
<path d="M0 0 C0.99 0 1.98 0 3 0 C3 7.92 3 15.84 3 24 C-7 25 -7 25 -10.125 23.125 C-12.62846525 18.95255792 -12.91909996 15.75011475 -12 11 C-10.375 7.9375 -10.375 7.9375 -8 6 C-4.81894588 5.61827351 -2.87470493 5.56264754 0 7 C0 4.69 0 2.38 0 0 Z M-6 9 C-8.4282022 10.99557113 -8.4282022 10.99557113 -8.3125 14.9375 C-8.25612142 17.76155426 -8.23113287 18.69182284 -6.5 21 C-6.005 21.33 -5.51 21.66 -5 22 C-2.95163118 21.43637698 -2.95163118 21.43637698 -1 20 C0.20920543 16.37238372 0.2832321 14.65143382 -1.25 11.125 C-1.8275 10.42375 -2.405 9.7225 -3 9 C-3.99 9 -4.98 9 -6 9 Z " fill="#444342" transform="translate(105,199)"/>
<path d="M0 0 C2.375 1.625 2.375 1.625 4 4 C4.33 5.98 4.66 7.96 5 10 C0.71 10 -3.58 10 -8 10 C-6.5105089 13.99621244 -6.5105089 13.99621244 -4.0625 14.9375 C-3.0415625 14.9684375 -3.0415625 14.9684375 -2 15 C-0.97895449 14.02149805 0.0206121 13.02019573 1 12 C2.32 12 3.64 12 5 12 C3.75023244 15.65316671 3.32901247 16.78065836 0 19 C-3.66731219 19.47834507 -5.53165147 19.24978588 -8.8125 17.5 C-11.36517934 14.58265219 -11.88225256 12.82756439 -12.14453125 9.03515625 C-11.91844283 5.85158681 -10.73269894 3.63113542 -9 1 C-5.90826248 -0.54586876 -3.40570448 -0.29359521 0 0 Z M-5 3 C-5.66 4.32 -6.32 5.64 -7 7 C-4.36 7 -1.72 7 1 7 C0.67 6.01 0.34 5.02 0 4 C-1.65 3.67 -3.3 3.34 -5 3 Z " fill="#444342" transform="translate(41,205)"/>
<path d="M0 0 C1.90625 0.48828125 1.90625 0.48828125 4.40625 2.67578125 C5.90625 5.48828125 5.90625 5.48828125 5.90625 10.48828125 C1.94625 10.48828125 -2.01375 10.48828125 -6.09375 10.48828125 C-5.43375 11.80828125 -4.77375 13.12828125 -4.09375 14.48828125 C-3.10375 14.81828125 -2.11375 15.14828125 -1.09375 15.48828125 C-0.68125 14.99328125 -0.26875 14.49828125 0.15625 13.98828125 C1.90625 12.48828125 1.90625 12.48828125 5.90625 12.48828125 C5.54427104 15.11262872 5.07968943 16.30841814 3.21875 18.23828125 C0.1266304 19.90969725 -1.62211597 20.05507864 -5.09375 19.48828125 C-8.10469689 17.45916487 -9.78675642 15.96451996 -10.54296875 12.328125 C-10.73120689 8.44003375 -10.31918 5.94853416 -8.59375 2.42578125 C-5.56317045 0.0770821 -3.76616599 -0.24592502 0 0 Z M-4.78125 4.92578125 C-6.20094868 6.27579815 -6.20094868 6.27579815 -6.09375 7.48828125 C-3.45375 7.48828125 -0.81375 7.48828125 1.90625 7.48828125 C1.24625 6.16828125 0.58625 4.84828125 -0.09375 3.48828125 C-3.0825898 3.16404802 -3.0825898 3.16404802 -4.78125 4.92578125 Z " fill="#444342" transform="translate(275.09375,204.51171875)"/>
<path d="M0 0 C2.375 1.0625 2.375 1.0625 4 3 C4.75 6.6875 4.75 6.6875 5 10 C-0.94 10.495 -0.94 10.495 -7 11 C-6.67 12.32 -6.34 13.64 -6 15 C-3.02934491 14.65772428 -3.02934491 14.65772428 0 14 C0.33 13.34 0.66 12.68 1 12 C2.32 12 3.64 12 5 12 C3.75023244 15.65316671 3.32901247 16.78065836 0 19 C-3.92211001 19.59684283 -5.52518738 19.3096604 -8.875 17.125 C-11.84015367 12.76447989 -11.91682131 9.1290098 -11 4 C-8.24432358 -0.62953638 -5.11343733 -0.63917967 0 0 Z M-5 3 C-5.66 4.32 -6.32 5.64 -7 7 C-4.36 7 -1.72 7 1 7 C0.67 6.01 0.34 5.02 0 4 C-1.65 3.67 -3.3 3.34 -5 3 Z " fill="#444342" transform="translate(231,205)"/>
<path d="M0 0 C1.19109375 0.00773438 1.19109375 0.00773438 2.40625 0.015625 C3.2003125 0.01046875 3.994375 0.0053125 4.8125 0 C6.90625 0.265625 6.90625 0.265625 8.90625 2.265625 C9.2126359 4.99997462 9.4175836 7.64842321 9.53125 10.390625 C9.56992188 11.14472656 9.60859375 11.89882812 9.6484375 12.67578125 C9.74276031 14.53865684 9.82559662 16.40210755 9.90625 18.265625 C7.80432303 18.51449795 5.69951036 18.7390969 3.59375 18.953125 C2.42199219 19.08074219 1.25023437 19.20835937 0.04296875 19.33984375 C-3.09375 19.265625 -3.09375 19.265625 -4.98828125 17.94140625 C-6.55672137 15.56380621 -6.51210677 14.05467015 -6.09375 11.265625 C-4.45078667 9.11151752 -3.49766002 8.35701051 -0.83203125 7.75390625 C-0.03152344 7.69589844 0.76898438 7.63789063 1.59375 7.578125 C2.40199219 7.51238281 3.21023437 7.44664062 4.04296875 7.37890625 C4.96529297 7.32283203 4.96529297 7.32283203 5.90625 7.265625 C5.24625 6.275625 4.58625 5.285625 3.90625 4.265625 C0.88205475 4.85366297 -2.11133453 5.49240618 -5.09375 6.265625 C-4.40878186 2.84078431 -3.87023579 0.49100006 0 0 Z M-2.09375 12.265625 C-2.09375 13.255625 -2.09375 14.245625 -2.09375 15.265625 C-0.30175528 16.04845148 -0.30175528 16.04845148 1.90625 16.265625 C4.21348357 15.11864542 4.21348357 15.11864542 5.90625 13.265625 C5.90625 12.275625 5.90625 11.285625 5.90625 10.265625 C3.02229263 10.265625 0.61147185 11.32467827 -2.09375 12.265625 Z " fill="#444342" transform="translate(153.09375,204.734375)"/>
<path d="M0 0 C1.90625 0.47265625 1.90625 0.47265625 4.40625 2.41015625 C6.43109337 6.54421147 6.84576288 9.95482476 5.90625 14.47265625 C3.47512157 17.97634134 2.08487962 19.22710841 -2.09375 20.09765625 C-6.27237962 19.22710841 -7.66262157 17.97634134 -10.09375 14.47265625 C-11.03326288 9.95482476 -10.61859337 6.54421147 -8.59375 2.41015625 C-5.56476644 0.06269399 -3.76576592 -0.27400162 0 0 Z M-3.09375 3.47265625 C-4.08375 4.13265625 -5.07375 4.79265625 -6.09375 5.47265625 C-6.68648775 10.76949004 -6.68648775 10.76949004 -4.84375 15.53515625 C-3.10994861 16.66963367 -3.10994861 16.66963367 -0.96875 16.28515625 C1.09589132 15.62909965 1.09589132 15.62909965 1.90625 13.47265625 C1.9751972 12.09922794 1.99092708 10.72263523 1.96875 9.34765625 C1.948125 8.06890625 1.9275 6.79015625 1.90625 5.47265625 C-0.42229463 4.27427416 -0.42229463 4.27427416 -3.09375 3.47265625 Z " fill="#444342" transform="translate(74.09375,204.52734375)"/>
<path d="M0 0 C2.4375 1.3125 2.4375 1.3125 4 4 C4.60722012 7.77507602 4.65797384 11.22952385 4 15 C1.43329315 18.24612925 -0.00424284 18.85774898 -4.0625 19.4375 C-7.31059514 18.95374115 -8.69411274 18.30588726 -11 16 C-12.53784153 11.3864754 -12.74741859 7.56278431 -10.625 3.125 C-7.65349286 -0.76081703 -4.68959062 -0.40427505 0 0 Z M-6.6875 4.0625 C-8.76351378 7.12709177 -8.51264131 9.4115108 -8 13 C-5.6273026 15.00864359 -5.6273026 15.00864359 -3 16 C0.22994813 14.30148891 0.22994813 14.30148891 0.875 11.1875 C1.0227086 7.42093069 0.37809857 5.88769112 -2 3 C-4.90923892 2.73359337 -4.90923892 2.73359337 -6.6875 4.0625 Z " fill="#444342" transform="translate(353,205)"/>
<path d="M0 0 C1.918125 -0.0825 3.83625 -0.165 5.8125 -0.25 C7.43091797 -0.31960937 7.43091797 -0.31960937 9.08203125 -0.390625 C12 0 12 0 13.875 1.5625 C15.41583701 4.90098018 15.28915424 7.59044724 15.1875 11.25 C15.16042969 12.51328125 15.13335937 13.7765625 15.10546875 15.078125 C15.07066406 16.04234375 15.03585938 17.0065625 15 18 C13.68 18 12.36 18 11 18 C10.67 13.71 10.34 9.42 10 5 C8.68 4.67 7.36 4.34 6 4 C4.12175109 5.87824891 4.60897603 9.03935276 4.4375 11.5625 C4.31181641 13.35880859 4.31181641 13.35880859 4.18359375 15.19140625 C4.12300781 16.11824219 4.06242188 17.04507813 4 18 C2.68 18 1.36 18 0 18 C0 12.06 0 6.12 0 0 Z " fill="#444342" transform="translate(166,205)"/>
<path d="M0 0 C1.32 0.33 2.64 0.66 4 1 C4.33 0.67 4.66 0.34 5 0 C8.4375 -0.1875 8.4375 -0.1875 12 0 C14 2 14 2 14.1953125 5.6953125 C14.182009 7.17200108 14.15814835 8.64862358 14.125 10.125 C14.11597656 10.87910156 14.10695313 11.63320312 14.09765625 12.41015625 C14.0740687 14.27357254 14.03819719 16.13682593 14 18 C13.01 18 12.02 18 11 18 C10.67 13.71 10.34 9.42 10 5 C8.68 4.67 7.36 4.34 6 4 C4.12175109 5.87824891 4.60897603 9.03935276 4.4375 11.5625 C4.31181641 13.35880859 4.31181641 13.35880859 4.18359375 15.19140625 C4.12300781 16.11824219 4.06242187 17.04507813 4 18 C2.68 18 1.36 18 0 18 C0 12.06 0 6.12 0 0 Z " fill="#444342" transform="translate(284,205)"/>
<path d="M0 0 C2.4375 1.875 2.4375 1.875 4 4 C4 4.66 4 5.32 4 6 C2.68 6.33 1.36 6.66 0 7 C-0.66 6.01 -1.32 5.02 -2 4 C-3.32 4.33 -4.64 4.66 -6 5 C-6.93380961 9.53140653 -6.93380961 9.53140653 -6 14 C-4.20350035 15.0953531 -4.20350035 15.0953531 -2 15 C0.27144074 13.14567913 0.27144074 13.14567913 2 11 C2.66 11.33 3.32 11.66 4 12 C3.64267506 14.59060578 3.1383604 15.84567494 1.375 17.8125 C-2.07753391 19.53876696 -4.32499632 18.93545548 -8 18 C-10.3953238 16.27558865 -10.93526981 15.38196646 -11.43359375 12.44140625 C-11.44401126 4.76369937 -11.44401126 4.76369937 -9.4375 1.3125 C-6.03362851 -0.52035388 -3.80853299 -0.54407614 0 0 Z " fill="#444342" transform="translate(59,205)"/>
<path d="M0 0 C0.763125 0.20625 1.52625 0.4125 2.3125 0.625 C1.9825 1.615 1.6525 2.605 1.3125 3.625 C0.3225 3.955 -0.6675 4.285 -1.6875 4.625 C-2.0175 5.285 -2.3475 5.945 -2.6875 6.625 C-1.6975 6.625 -0.7075 6.625 0.3125 6.625 C0.3125 7.945 0.3125 9.265 0.3125 10.625 C-0.6775 10.625 -1.6675 10.625 -2.6875 10.625 C-2.6875 15.245 -2.6875 19.865 -2.6875 24.625 C-3.6775 24.625 -4.6675 24.625 -5.6875 24.625 C-5.6875 20.005 -5.6875 15.385 -5.6875 10.625 C-6.6775 10.625 -7.6675 10.625 -8.6875 10.625 C-8.6875 9.305 -8.6875 7.985 -8.6875 6.625 C-7.6975 6.625 -6.7075 6.625 -5.6875 6.625 C-5.749375 5.84125 -5.81125 5.0575 -5.875 4.25 C-5.813125 3.38375 -5.75125 2.5175 -5.6875 1.625 C-2.6875 -0.375 -2.6875 -0.375 0 0 Z " fill="#444342" transform="translate(366.6875,198.375)"/>
<path d="M0 0 C0.33 0 0.66 0 1 0 C1 1.98 1 3.96 1 6 C1.99 6 2.98 6 4 6 C4 7.32 4 8.64 4 10 C3.01 10 2.02 10 1 10 C1.08733576 11.60517097 1.19552224 13.20921662 1.3125 14.8125 C1.39951172 16.15248047 1.39951172 16.15248047 1.48828125 17.51953125 C2.07122445 20.34524829 2.89983712 21.12505566 5 23 C5 23.66 5 24.32 5 25 C2.69 24.67 0.38 24.34 -2 24 C-2 19.38 -2 14.76 -2 10 C-2.66 10 -3.32 10 -4 10 C-4 8.68 -4 7.36 -4 6 C-3.34 6 -2.68 6 -2 6 C-1.855625 5.195625 -1.71125 4.39125 -1.5625 3.5625 C-1 1 -1 1 0 0 Z " fill="#444342" transform="translate(372,199)"/>
<path d="M0 0 C0.33 0 0.66 0 1 0 C1 1.98 1 3.96 1 6 C1.99 6 2.98 6 4 6 C4 7.32 4 8.64 4 10 C3.01 10 2.02 10 1 10 C1 13.63 1 17.26 1 21 C1.99 21 2.98 21 4 21 C4 22.32 4 23.64 4 25 C2.33388095 25.042721 0.66617115 25.04063832 -1 25 C-2 24 -2 24 -2.09765625 20.83984375 C-2.08025391 18.90818359 -2.08025391 18.90818359 -2.0625 16.9375 C-2.05347656 15.64714844 -2.04445313 14.35679687 -2.03515625 13.02734375 C-2.02355469 12.02832031 -2.01195312 11.02929688 -2 10 C-2.66 10 -3.32 10 -4 10 C-4 8.68 -4 7.36 -4 6 C-3.34 6 -2.68 6 -2 6 C-1.855625 5.195625 -1.71125 4.39125 -1.5625 3.5625 C-1 1 -1 1 0 0 Z " fill="#444342" transform="translate(305,199)"/>
<path d="M0 0 C2.97 0 5.94 0 9 0 C9.33 0.66 9.66 1.32 10 2 C9.67 2.66 9.34 3.32 9 4 C7.35 4 5.7 4 4 4 C3.67 8.62 3.34 13.24 3 18 C2.01 18 1.02 18 0 18 C0 12.06 0 6.12 0 0 Z " fill="#444342" transform="translate(83,205)"/>
</svg>
