<?xml version="1.0" encoding="UTF-8"?>
<svg id="Layer_1" data-name="Layer 1" xmlns="http://www.w3.org/2000/svg" viewBox="0 0 994 159.5">
  <defs>
    <style>
      .cls-1 {
        fill: #3c3c3b;
      }

      .cls-1, .cls-2 {
        stroke-width: 0px;
      }

      .cls-2 {
        fill: #e7344c;
      }
    </style>
  </defs>
  <polygon class="cls-2" points="991.45 3.46 949.39 3.46 887 53.85 907.92 70.85 991.45 3.46"/>
  <rect class="cls-2" x="35.55" y="52.01" width="58.97" height="18.08"/>
  <path class="cls-2" d="M26.55,135.58V13.59l-.03-.03H8.48v114.03c0,15.58,12.65,28.23,28.23,28.23l66.22.1v-18.17H28.68c-1.17,0-2.14-1-2.14-2.17Z"/>
  <path class="cls-2" d="M223.58,52.01h-77.34c-12.03,0-22.27,7.5-26.34,18.08-1.22,3.16-1.9,6.58-1.9,10.16v47.42c0,15.6,12.64,28.24,28.24,28.24h102.04c.18,0,.34-.08.51-.1h3.03v-17.98h-113.61c-1.19,0-2.17-.98-2.17-2.17v-63.41c0-1.22.99-2.17,2.17-2.17h93.36c1.2,0,2.17.97,2.17,2.17v22.68h-88.68v18.04h102.46c2.36,0,4.3-1.94,4.3-4.34v-28.39c0-15.6-12.64-28.24-28.24-28.24Z"/>
  <path class="cls-2" d="M424.8,52.01h-77.34c-12.03,0-22.27,7.5-26.34,18.08-1.22,3.16-1.9,6.58-1.9,10.16v47.42c0,15.6,12.64,28.24,28.24,28.24h102.04c.18,0,.34-.08.51-.1h3.03v-17.98h-113.61c-1.19,0-2.17-.98-2.17-2.17v-63.41c0-1.22.99-2.17,2.17-2.17h93.36c1.2,0,2.17.97,2.17,2.17v22.68h-88.68v18.04h102.46c2.36,0,4.3-1.94,4.3-4.34v-28.39c0-15.6-12.64-28.24-28.24-28.24Z"/>
  <rect class="cls-2" x="277.57" y="13.57" width="18.07" height="142.35"/>
  <path class="cls-1" d="M645.57,3.49h-150.95v26.51h162.74c1.72,0,3.14,1.41,3.14,3.17v46.64c0,1.76-1.45,3.17-3.21,3.17h-162.67v72.94h26.54v-46.4h124.4c22.89,0,41.43-18.55,41.43-41.43v-23.16c0-22.89-18.55-41.43-41.43-41.43Z"/>
  <rect class="cls-1" x="714.09" y="3.48" width="26.47" height="152.44"/>
  <polygon class="cls-1" points="802.48 3.49 802.44 3.46 760.74 3.49 855.15 79.64 760.8 155.92 802.44 155.92 876.07 96.49 949.77 155.92 991.52 155.92 802.48 3.49"/>
</svg>